<svg
   width="100%"
   height="971"
   viewBox="0 0 472 971"
   fill="none"
   version="1.1"
   id="cocktail-1">
  <defs
     id="defs44" />
  <path
     d="M 408.294,91.8926 H 61.4694 C -26.2808,295.227 -49.9597,625.298 210.506,648.974 v 196.372 c 1.393,40.388 -19.5,52.922 -47.357,65.457 -15.322,5.57 -39,8.356 -54.322,9.749 -30.0861,2.228 -36.679,18.569 -36.2147,26.461 0,21.169 24.1431,24.604 36.2147,23.676 h 250.717 c 29.25,1.393 35.75,-14.856 36.214,-23.676 0,-20.891 -21.728,-25.347 -36.214,-26.461 -14.486,-1.115 -41.322,-6.964 -52.929,-9.749 C 269.843,898.547 260.65,885.734 260.65,845.346 V 648.974 C 569.867,616.942 461.223,200.523 408.294,91.8926 Z"
     fill="#ffffff"
     id="path24"
     style="display:inline" />
  <path
     d="M 432.398,153.797 H 38.0644 c -55.2426,149.355 -87.1766,496.211 197.2846,496.211 284.461,0 255.72,-321.554 197.049,-496.211 z"
     fill="#003dff"
     stroke="#003dff"
     id="path26"
     style="display:inline" />
  <rect
     x="140.037"
     y="355.668"
     width="89.9075"
     height="89.9075"
     transform="rotate(-8.44081 140.037 355.668)"
     fill="white"
     fill-opacity="0.8"
     id="ice-bottom-left" />
  <rect
     x="228.404"
     y="289.37"
     width="89.9075"
     height="89.9075"
     transform="rotate(17.078 228.404 289.37)"
     fill="white"
     fill-opacity="0.8"
     id="ice-bottom-right" />
  <rect
     x="176.885"
     y="306.322"
     width="89.9075"
     height="89.9075"
     transform="rotate(-85.4489 176.885 306.322)"
     fill="white"
     fill-opacity="0.8"
     id="ice-top-middle" />
  <rect
     x="87.7607"
     y="388.443"
     width="89.9075"
     height="89.9075"
     transform="rotate(-133.303 87.7607 388.443)"
     fill="white"
     fill-opacity="0.8"
     id="ice-top-left" />
  <rect
     x="350.27"
     y="205.394"
     width="89.9075"
     height="89.9075"
     transform="rotate(24.5009 350.27 205.394)"
     fill="white"
     fill-opacity="0.8"
     id="ice-top-right" />
  <rect
     x="356.323"
     width="23.5823"
     height="577.76599"
     transform="rotate(16.6315,356.323,0)"
     fill="#86e1ed"
     id="tubule"
     y="0"
     style="display:inline" />
</svg>
