<svg viewBox="0 0 348 153" fill="none" xmlns="http://www.w3.org/2000/svg">
<path d="M136.772 150.411C57.1666 100.31 98.4999 18.1997 136.076 4.28271C82.4954 6.37026 18.4773 48.1212 1.08105 76.6511C25.0183 115.062 99.8917 148.324 136.772 150.411Z" fill="#003DFF" stroke="#003DFF"/>
<path d="M211.228 150.411C290.833 100.31 249.5 18.1997 211.924 4.28271C265.505 6.37026 329.523 48.1212 346.919 76.6511C322.982 115.062 248.108 148.324 211.228 150.411Z" fill="#003DFF" stroke="#003DFF"/>
<circle cx="173.652" cy="77.3477" r="41.751" fill="#003DFF"/>
<path d="M190.032 16.6638L173.716 61.9196L157.704 16.8803C168.749 11.4246 183.858 14.4627 190.032 16.6638Z" fill="white" stroke="white"/>
<path d="M114.651 62.8282L160.585 77.124L116.299 95.1154C110.359 84.3233 112.725 69.0939 114.651 62.8282Z" fill="white" stroke="white"/>
<path d="M232.828 62.8282L186.894 77.124L231.18 95.1154C237.119 84.3233 234.753 69.0939 232.828 62.8282Z" fill="white" stroke="white"/>
<path d="M190.032 136.853L173.716 91.5975L157.704 136.637C168.749 142.092 183.858 139.054 190.032 136.853Z" fill="white" stroke="white"/>
<path d="M139.991 23.613L162.305 66.2324L118.293 47.5793C121.741 35.753 134.195 26.6741 139.991 23.613Z" fill="white" stroke="white"/>
<path d="M139.991 131.356L162.305 88.7369L118.293 107.39C121.741 119.216 134.195 128.295 139.991 131.356Z" fill="white" stroke="white"/>
<path d="M207.171 131.356L184.858 88.7369L228.869 107.39C225.422 119.216 212.967 128.295 207.171 131.356Z" fill="white" stroke="white"/>
<path d="M207.171 24.2922L184.858 66.9116L228.869 48.2585C225.422 36.4322 212.967 27.3533 207.171 24.2922Z" fill="white" stroke="white"/>
</svg>
